<svg xmlns="http://www.w3.org/2000/svg" width="512" height="512" viewBox="0 0 512 512">
  <defs>
    <radialGradient id="bg" cx="50%" cy="38%" r="75%">
      <stop offset="0" stop-color="#2a0a0a"/>
      <stop offset="1" stop-color="#000"/>
    </radialGradient>
    <linearGradient id="gold" x1="0" y1="0" x2="1" y2="1">
      <stop offset="0" stop-color="#F0D784"/>
      <stop offset="0.5" stop-color="#C9A84C"/>
      <stop offset="1" stop-color="#9A7A2E"/>
    </linearGradient>
    <linearGradient id="paper" x1="0" y1="0" x2="0" y2="1">
      <stop offset="0" stop-color="#FFFDF6"/>
      <stop offset="1" stop-color="#F2EAD6"/>
    </linearGradient>
    <filter id="sh" x="-20%" y="-20%" width="140%" height="140%">
      <feDropShadow dx="0" dy="10" stdDeviation="12" flood-color="#000" flood-opacity="0.6"/>
    </filter>
  </defs>
  <rect width="512" height="512" fill="url(#bg)"/>
  <circle cx="256" cy="256" r="236" fill="none" stroke="#C9A84C" stroke-opacity="0.18" stroke-width="3"/>
  <g filter="url(#sh)">
    <path d="M136 92 h216 a14 14 0 0 1 14 14 v286
             l-19 -16 -19 16 -19 -16 -19 16 -19 -16 -19 16 -19 -16 -19 16 -19 -16 -19 16 -19 -16 -19 16
             v-286 a14 14 0 0 1 14 -14 z" fill="url(#paper)"/>
  </g>
  <path d="M136 106 a14 14 0 0 1 14 -14 h216 a14 14 0 0 1 14 14 v44 h-244 z" fill="#8B0000"/>
  <rect x="160" y="118" width="110" height="18" rx="9" fill="#F0D784"/>
  <circle cx="340" cy="127" r="9" fill="#F0D784"/>
  <g fill="#8a8578">
    <rect x="160" y="178" width="120" height="14" rx="7"/><rect x="312" y="178" width="40" height="14" rx="7"/>
    <rect x="160" y="212" width="96" height="14" rx="7"/><rect x="304" y="212" width="48" height="14" rx="7"/>
    <rect x="160" y="246" width="132" height="14" rx="7"/><rect x="318" y="246" width="34" height="14" rx="7"/>
  </g>
  <line x1="160" y1="284" x2="352" y2="284" stroke="#8B0000" stroke-width="3" stroke-dasharray="10 8"/>
  <rect x="160" y="304" width="80" height="16" rx="8" fill="#333"/>
  <rect x="268" y="302" width="84" height="20" rx="10" fill="#8B0000"/>
  <g filter="url(#sh)">
    <circle cx="350" cy="372" r="78" fill="url(#gold)"/>
    <circle cx="350" cy="372" r="64" fill="none" stroke="#6b5520" stroke-opacity="0.5" stroke-width="4"/>
  </g>
  <text x="350" y="404" text-anchor="middle" font-family="Arial, 'Noto Sans Thai', sans-serif" font-size="92" font-weight="700" fill="#3a2a08">฿</text>
  <circle cx="162" cy="394" r="46" fill="#1f8f4a" stroke="#0e3d20" stroke-width="4"/>
  <path d="M140 396 l16 16 l30 -34" fill="none" stroke="#fff" stroke-width="12" stroke-linecap="round" stroke-linejoin="round"/>
</svg>
